<svg width="63" height="29" viewBox="0 0 63 29" fill="none" xmlns="http://www.w3.org/2000/svg">
<rect width="63" height="29" rx="14.5" transform="matrix(-1 0 0 1 63 0)" fill="white"/>
<path d="M46.7071 14.2929C47.0976 14.6834 47.0976 15.3166 46.7071 15.7071L40.3431 22.0711C39.9526 22.4616 39.3195 22.4616 38.9289 22.0711C38.5384 21.6805 38.5384 21.0474 38.9289 20.6569L44.5858 15L38.9289 9.34315C38.5384 8.95262 38.5384 8.31946 38.9289 7.92893C39.3195 7.53841 39.9526 7.53841 40.3431 7.92893L46.7071 14.2929ZM16 16C15.4477 16 15 15.5523 15 15C15 14.4477 15.4477 14 16 14V16ZM46 16H16V14H46V16Z" fill="black"/>
</svg>
