<svg width="63" height="29" viewBox="0 0 63 29" fill="none" xmlns="http://www.w3.org/2000/svg">
<rect width="63" height="29" rx="14.5" fill="white"/>
<path d="M16.2929 14.2929C15.9024 14.6834 15.9024 15.3166 16.2929 15.7071L22.6569 22.0711C23.0474 22.4616 23.6805 22.4616 24.0711 22.0711C24.4616 21.6805 24.4616 21.0474 24.0711 20.6569L18.4142 15L24.0711 9.34315C24.4616 8.95262 24.4616 8.31946 24.0711 7.92893C23.6805 7.53841 23.0474 7.53841 22.6569 7.92893L16.2929 14.2929ZM47 16C47.5523 16 48 15.5523 48 15C48 14.4477 47.5523 14 47 14V16ZM17 16H47V14H17V16Z" fill="black"/>
</svg>
