<svg width="87" height="31" viewBox="0 0 87 31" fill="none" xmlns="http://www.w3.org/2000/svg">
<path fill-rule="evenodd" clip-rule="evenodd" d="M69.1132 19.397C69.2461 18.1597 73.4312 4.46451 73.8134 3.95717C74.8785 3.89611 75.0514 4.34141 75.325 5.14635C75.8272 6.62356 79.722 19.0916 79.7112 19.3708L69.1132 19.397ZM64.054 30.2491C64.4963 30.3128 66.9036 30.4964 67.1959 30.4048C67.4926 27.4735 67.951 23.6466 68.6725 20.9112C70.3785 20.7692 72.6602 20.8982 74.4314 20.8939C76.3888 20.8893 78.3524 20.8472 80.3021 20.8419C80.3141 20.8608 80.3294 20.8679 80.3343 20.9008C80.339 20.9332 80.3586 20.945 80.3649 20.9594C80.5397 21.3613 80.3233 20.8259 80.4159 21.0773L80.9982 23.19C81.2058 24.0217 81.4705 24.7668 81.7232 25.5555C82.0181 26.4762 82.793 29.8138 83.083 30.3275L87.0001 30.224C86.5243 27.5089 83.4184 18.5323 82.5712 15.592C81.8811 13.197 81.1119 10.7141 80.3316 8.33005C80.026 7.39618 78.2196 1.42543 78.0059 1.08241L73.1187 0.827087L67.344 19.121C66.6897 21.2513 64.0223 29.0624 64.054 30.2491Z" fill="black"/>
<path fill-rule="evenodd" clip-rule="evenodd" d="M21.5174 26.1189C21.3402 26.4613 21.2496 26.8492 21.0694 27.2251C20.4319 28.5558 20.4785 28.3514 22.5286 29.0546C24.6485 29.7817 26.639 30.2383 28.984 30.3982C33.3018 30.6926 38.2106 29.9969 39.988 25.9016C40.5908 24.5126 40.8391 23.1912 40.6447 21.453C40.4784 19.9665 39.9048 18.5984 39.1678 17.7459C38.3483 16.7977 37.2819 16.0676 36.2794 15.3832C35.7408 15.0155 35.3034 14.6983 34.7367 14.3776C32.0516 12.8582 28.5401 11.5548 26.2883 9.8479C25.5641 9.29896 24.4008 8.02705 24.1238 6.76524C23.7555 5.08779 24.7711 3.80323 25.5278 3.10262C27.5112 1.26606 31.5425 1.32458 33.964 2.09307C34.6412 2.30801 35.2314 2.55146 35.8796 2.80862C36.326 2.98565 37.3884 3.42956 37.8248 3.51084C38.0091 2.91548 38.6436 1.94576 38.5958 1.18678C35.5392 0.316721 32.941 -0.0626942 29.4736 0.0083934C24.9561 0.101006 21.2462 2.67855 21.0145 6.90236C20.9142 8.7318 21.1484 9.77452 22.0176 11.0285C24.0427 13.9502 28.2175 15.1629 31.3837 17.0342C33.2352 18.1285 36.0304 19.8005 36.7846 21.9072C37.3494 23.4848 37.1328 24.7568 36.4359 26.0616C35.1948 28.3852 32.5541 29.2109 29.0984 28.8054C27.5861 28.6279 26.5152 28.0961 25.2191 27.6028L21.5174 26.1189Z" fill="black"/>
<path fill-rule="evenodd" clip-rule="evenodd" d="M9.4676 13.2392L3.75071 13.2223C3.5841 12.5456 3.57039 3.59189 3.67404 2.5651L4.5454 2.64714C5.30507 2.54327 6.84877 2.67932 7.68719 2.70865L17.0851 3.08937L17.1606 1.07693C14.3256 1.07724 11.4543 0.964708 8.61723 0.953064L0 0.973442L0.00168691 29.4745C0.489112 29.6596 15.2358 29.3831 17.1282 29.3743L17.1506 27.4196C14.9595 27.5548 12.7285 27.6031 10.5398 27.7283C8.39715 27.8509 5.85799 28.0042 3.73019 27.962L3.70345 14.7232L12.1905 14.8111L12.2478 13.2322L9.4676 13.2392Z" fill="black"/>
<path fill-rule="evenodd" clip-rule="evenodd" d="M41.9349 1.05375L41.8911 2.95466C42.4885 3.1467 49.5567 2.48477 51.2401 2.65751C51.1157 4.78616 51.1861 7.13144 51.1657 9.28896C51.1131 14.8564 51.1761 20.5474 51.1952 26.1287C51.1988 27.1477 51.1231 28.5156 51.2153 29.4902L55.0029 29.4955L55.0392 2.65001C56.8764 2.58505 63.6232 3.06849 64.3455 2.9126L64.3792 1.02794C60.6824 0.890204 56.9024 0.958688 53.1884 0.978298C49.4914 0.997832 45.6129 1.16452 41.9349 1.05375Z" fill="black"/>
</svg>
